<?xml version="1.0" standalone="no"?>
<!DOCTYPE svg PUBLIC "-//W3C//DTD SVG 20010904//EN"
 "http://www.w3.org/TR/2001/REC-SVG-20010904/DTD/svg10.dtd">
<svg version="1.0" xmlns="http://www.w3.org/2000/svg"
 width="300.000000pt" height="300.000000pt" viewBox="0 0 300.000000 300.000000"
 preserveAspectRatio="xMidYMid meet">

<g transform="translate(0.000000,300.000000) scale(0.100000,-0.100000)"
fill="#000000" stroke="none">
<path d="M1355 2921 c-341 -40 -616 -172 -855 -411 -211 -211 -334 -442 -391
-732 -31 -157 -31 -369 0 -526 98 -499 445 -902 923 -1071 288 -101 638 -101
926 0 478 169 825 571 923 1071 45 228 25 506 -52 726 -168 475 -574 827
-1062 921 -120 23 -311 33 -412 22z"/>
</g>
</svg>
