<svg xmlns="http://www.w3.org/2000/svg" xmlns:xlink="http://www.w3.org/1999/xlink" id="Calque_1" x="0px" y="0px" viewBox="0 0 2000 5580" style="enable-background:new 0 0 2000 5580;" xml:space="preserve"><style type="text/css">			.st0{clip-path:url(#SVGID_00000119091976871847534610000008629890560793615509_);fill:url(#SVGID_00000178205728620241026440000011267558878343977118_);}			.st1{clip-path:url(#SVGID_00000004505818781559223840000015583003515548533909_);fill:url(#SVGID_00000088090977515520567520000016485151043370255771_);}			.st2{clip-path:url(#SVGID_00000080885321250334330380000017135008984918240144_);fill:url(#SVGID_00000080907681837552442500000005064132252071962244_);}			.st3{clip-path:url(#SVGID_00000086690651081731644350000006336637604056033411_);fill:url(#SVGID_00000126307202735777594910000004010299209699943065_);}			.st4{clip-path:url(#SVGID_00000122683135935413250200000000208682308515069598_);fill:url(#SVGID_00000027571087751304842250000002839232110479845519_);}</style><g>	<defs>		<path id="SVGID_1_" d="M68.3,3725.9c28.3,204.3,130,392.8,259.5,553.3c129.5,160.5,286.6,296.2,442.8,430.9   c40.9,35.3,100.7,71.9,144,39.5c28.1-21,32.3-60.9,32.8-96c3.2-198.8-31.3-398.1-101.2-584.2c-79.4-211.5-203.1-402.7-344.9-577.4   c-71.8-88.5-148.5-172.8-227.3-255c-53.7-56.1-145.7-189.6-223-200C68.7,3264.4,37,3499.8,68.3,3725.9"></path>	</defs>	<clipPath id="SVGID_00000111874857578060906930000017550600928177571234_">		<use xlink:href="#SVGID_1_" style="overflow:visible;"></use>	</clipPath>			<linearGradient id="SVGID_00000053519468099659840910000003143088918989571720_" gradientUnits="userSpaceOnUse" x1="743.7487" y1="3047.2661" x2="744.7487" y2="3047.2661" gradientTransform="matrix(172.3715 -1586.7072 -1586.7072 -172.3715 4707324 1710089.125)">		<stop offset="0" style="stop-color:#432818"></stop>		<stop offset="0.326" style="stop-color:#432818"></stop>		<stop offset="0.6817" style="stop-color:#432818"></stop>		<stop offset="1" style="stop-color:#432818"></stop>	</linearGradient>			<polygon style="clip-path:url(#SVGID_00000111874857578060906930000017550600928177571234_);fill:url(#SVGID_00000053519468099659840910000003143088918989571720_);" points="  -150.4,4761.6 47.6,2938.9 1138,3057.4 940,4880.1  "></polygon></g><g>	<defs>		<path id="SVGID_00000127722264844366622130000007126924293616311187_" d="M364.8,1204.7c-88.9,73.8-175.9,227.7-186.8,368.6   c-5.4,69.6,7.8,136.1,48.4,188.2c34.4,44.1,100.7,66.8,155.3,45.6c75.9-29.5,77.2-122.4,96.3-189.3   c25.1-88,114.1-108.9,179.1-158.8c79.1-60.8,99.5-181.5,30.9-259.5c-38.5-43.7-90.1-62-143.3-62   C480.4,1137.5,413.8,1164.1,364.8,1204.7"></path>	</defs>	<clipPath id="SVGID_00000005235301031888622180000007301108540617697958_">		<use xlink:href="#SVGID_00000127722264844366622130000007126924293616311187_" style="overflow:visible;"></use>	</clipPath>			<linearGradient id="SVGID_00000034090554138709467420000003409545801977715359_" gradientUnits="userSpaceOnUse" x1="743.7444" y1="3044.103" x2="744.7444" y2="3044.103" gradientTransform="matrix(552.7467 0 0 -552.7467 -410925.5 1684100.875)">		<stop offset="0" style="stop-color:#432818"></stop>		<stop offset="0.326" style="stop-color:#432818"></stop>		<stop offset="0.6817" style="stop-color:#432818"></stop>		<stop offset="1" style="stop-color:#432818"></stop>	</linearGradient>			<rect x="172.6" y="1137.5" style="clip-path:url(#SVGID_00000005235301031888622180000007301108540617697958_);fill:url(#SVGID_00000034090554138709467420000003409545801977715359_);" width="584" height="690.8"></rect></g><g>	<defs>		<path id="SVGID_00000181087141542242838880000011612100287006180495_" d="M1470.3,4187.2c-54.4,25.7-88.3,80.1-119.1,131.7   c-78.9,132.1-157.9,264.3-236.8,396.4c-21.1,35.3-42.9,73.3-41,114.4c3.7,79.6,92.8,136.1,164.5,148.7c7.9,1.4,15.6,2,23.1,2h0   c65.2,0,116.2-49,172.9-84.7c82.9-52.1,165.8-104.2,248.6-156.3c63.3-39.8,127-79.9,180.7-131.8c24.1-23.3,46.5-49.8,56.4-81.8   c15-48.3-1.4-102-30.9-143.5c-29.5-41.4-70.7-72.8-111.2-103.6c-44.9-34.1-90.6-68.6-143.1-89.3c-28.6-11.3-59.6-18.1-90.2-18.1   C1518.6,4171.5,1493.4,4176.3,1470.3,4187.2"></path>	</defs>	<clipPath id="SVGID_00000060740633022117905070000004435455718163309739_">		<use xlink:href="#SVGID_00000181087141542242838880000011612100287006180495_" style="overflow:visible;"></use>	</clipPath>			<linearGradient id="SVGID_00000130606982057067394690000002383152204981502879_" gradientUnits="userSpaceOnUse" x1="745.9322" y1="3046.2991" x2="746.9322" y2="3046.2991" gradientTransform="matrix(536.2997 1660.4166 1660.4166 -536.2997 -5456866 399126.8125)">		<stop offset="0" style="stop-color:#432818"></stop>		<stop offset="0.326" style="stop-color:#432818"></stop>		<stop offset="0.6817" style="stop-color:#432818"></stop>		<stop offset="1" style="stop-color:#432818"></stop>	</linearGradient>			<polygon style="clip-path:url(#SVGID_00000060740633022117905070000004435455718163309739_);fill:url(#SVGID_00000130606982057067394690000002383152204981502879_);" points="  1852.9,3919.1 2171.1,4904.1 1153,5232.9 834.9,4247.9  "></polygon></g><g>	<defs>		<path id="SVGID_00000161623027888720343140000004336964426837776295_" d="M1299.4,2080.8c-37.9,14.8-50,61.4-57.1,101.5   c-12.4,70.3-11.3,197.4-61.7,246.6c-23.6-39.9-48.1-83.3-88.3-109.5c-56.5-36.9-150.3-22.3-168.7,42.7   c-17.3,61.2,38.3,116.9,89.1,155.2c50.8,38.3,108.6,89.7,97.2,152.3c-10.7,58.5-75.3,87.4-130.6,109.2   c-55.3,21.8-118.5,58.3-119.4,117.7c-1,67.1,84.2,105.7,149.5,90c65.3-15.8,116.5-64.5,173.4-100.2c56.9-35.7,134-57.8,188.8-19   c44.2,31.3,57.1,89.7,77.8,139.7c20.8,50,67,101.6,119.6,88.5c45.6-11.4,66.5-67.5,59.1-113.9c-7.4-46.4-34.4-87-53.6-129.9   c-19.2-42.9-30.2-95.1-6.1-135.4c32.8-55,109.2-59.1,173.3-59.7c64-0.6,142.1-13.8,164.2-73.9c23.6-64.1-41.4-131.1-108.7-143   c-67.3-11.9-135.3,10.7-203.2,18.3c-67.9,7.5-148.2-6.9-181.2-66.8c-20.7-37.5-17.3-83.2-11.7-125.7c5.6-42.5,12.8-86.9-1.8-127.1   c-12-33.3-45.1-61.4-78.7-61.4C1313.5,2076.9,1306.4,2078.1,1299.4,2080.8"></path>	</defs>	<clipPath id="SVGID_00000062902512493064341560000006676908071020278664_">		<use xlink:href="#SVGID_00000161623027888720343140000004336964426837776295_" style="overflow:visible;"></use>	</clipPath>			<linearGradient id="SVGID_00000069383086035110851710000013828298061444485259_" gradientUnits="userSpaceOnUse" x1="745.8178" y1="3047.1323" x2="746.8178" y2="3047.1323" gradientTransform="matrix(-1049.4969 2271.3191 2271.3191 1049.4969 -6136513 -4890152)">		<stop offset="0" style="stop-color:#432818"></stop>		<stop offset="0.326" style="stop-color:#432818"></stop>		<stop offset="0.6817" style="stop-color:#432818"></stop>		<stop offset="1" style="stop-color:#432818"></stop>	</linearGradient>			<polygon style="clip-path:url(#SVGID_00000062902512493064341560000006676908071020278664_);fill:url(#SVGID_00000069383086035110851710000013828298061444485259_);" points="  2322.4,2258.4 1741.2,3516.3 466.1,2927.1 1047.3,1669.2  "></polygon></g><g>	<defs>		<path id="SVGID_00000129896167006442886200000004874710123986533288_" d="M1381,887.5c-60.8,52.8-33,171.6,6.7,230   c42.6,62.7,123.8,100.1,197.4,82c48.2-11.9,90.3-46.7,110.9-92c35.9-78.9-0.3-180.5-73.8-226.5c-31.7-19.8-76.9-31.3-121.7-31.3   C1455.7,849.8,1411.2,861.3,1381,887.5 M1283.4,280.5c-64.4,10.9-126.9,39.2-172.5,85.9c-55.1,56.4-81.8,134.3-99.5,211.2   c-26,113-36.1,229.7-29.7,345.5c1.5,27.3-5.2,92.9,17.3,112.2c13.5,11.6,45.6,11.1,72.3,10.6c11.9-0.2,22.7-0.5,30.4,0.4   c33.1,3.6,71.7,0.9,91.9-25.6c18.9-24.9,13.7-59.8,7.6-90.5c-12.2-62.2-23.9-125.2-21-188.5c2.8-63.3,21.3-127.8,63-175.6   c41.7-47.8,109.1-75.6,170.4-59.6c42.4,11,78.1,41.5,101.1,78.7c23,37.3,34,80.9,37.9,124.5c2.6,28.8,3.2,60.6,22.5,82.1   c21.5,24,57.6,26,89.8,26.4c28.8,0.3,61.4-0.9,80.7-22.2c15.1-16.7,17.5-40.9,18.7-63.4c3.3-62.8,2.5-126.5-11.5-187.8   c-14-61.3-42-120.7-87.2-164.5c-50.6-49-119.1-75.5-187.9-90.8c-40.7-9.1-82.5-14.6-124.1-14.6   C1330.2,274.8,1306.6,276.6,1283.4,280.5"></path>	</defs>	<clipPath id="SVGID_00000149359947429557355510000009530717955923921598_">		<use xlink:href="#SVGID_00000129896167006442886200000004874710123986533288_" style="overflow:visible;"></use>	</clipPath>			<linearGradient id="SVGID_00000116927608069507739920000005889772347951483831_" gradientUnits="userSpaceOnUse" x1="744.0003" y1="3048.6946" x2="745.0003" y2="3048.6946" gradientTransform="matrix(-666.7041 -800.2031 -800.2031 666.7041 2937254 -1436144.125)">		<stop offset="0" style="stop-color:#432818"></stop>		<stop offset="0.326" style="stop-color:#432818"></stop>		<stop offset="0.6817" style="stop-color:#432818"></stop>		<stop offset="1" style="stop-color:#432818"></stop>	</linearGradient>			<polygon style="clip-path:url(#SVGID_00000149359947429557355510000009530717955923921598_);fill:url(#SVGID_00000116927608069507739920000005889772347951483831_);" points="  1300,1607.4 511.6,661.1 1443,-114.9 2231.4,831.4  "></polygon></g></svg>