<svg xmlns="http://www.w3.org/2000/svg" xmlns:xlink="http://www.w3.org/1999/xlink" id="Calque_1" x="0px" y="0px" viewBox="0 0 2000 6000" style="enable-background:new 0 0 2000 6000;" xml:space="preserve"><style type="text/css">			.st0{clip-path:url(#SVGID_00000089561065235145106160000002331967381941812895_);fill:url(#SVGID_00000011002124476432696890000015884401634066531752_);}			.st1{clip-path:url(#SVGID_00000173874945182977047150000016603501371529034123_);fill:url(#SVGID_00000139996131374113583050000007448726060076325268_);}			.st2{clip-path:url(#SVGID_00000011024013991644196830000005633569268347975062_);fill:url(#SVGID_00000108303100873532251220000000836820570369625520_);}			.st3{clip-path:url(#SVGID_00000053534919463342972390000000921066725909026701_);fill:url(#SVGID_00000042714004943857432500000018053690181540023942_);}			.st4{clip-path:url(#SVGID_00000114768214207003573460000016785533523438789283_);fill:url(#SVGID_00000165929257591488139400000001594389175398118793_);}			.st5{clip-path:url(#SVGID_00000128466393465417446070000009106288188908072882_);fill:url(#SVGID_00000012431685552404977180000007883247162143079847_);}			.st6{clip-path:url(#SVGID_00000019639521697963780680000002976935172817715347_);fill:url(#SVGID_00000143618944953376240430000000575705147882950319_);}			.st7{clip-path:url(#SVGID_00000137101122819050177700000004986486552411696798_);fill:url(#SVGID_00000183213594809521514550000014895515780733142947_);}			.st8{clip-path:url(#SVGID_00000080197224476109699340000012668425208797730721_);fill:url(#SVGID_00000097475074849890158370000002791478120859955636_);}			.st9{clip-path:url(#SVGID_00000145020988031874839710000016885931893497338789_);fill:url(#SVGID_00000111897484642254523540000017309668921267603594_);}			.st10{clip-path:url(#SVGID_00000003806476151702093970000015946927867035913910_);fill:url(#SVGID_00000114790207464347486250000016703107347725597347_);}			.st11{clip-path:url(#SVGID_00000145757375458830330970000013171785802117643447_);fill:url(#SVGID_00000022556431184729233830000002738041253184303784_);}			.st12{clip-path:url(#SVGID_00000109718014392036729330000006279756542733988520_);fill:url(#SVGID_00000178172386063658956050000013099762968213600191_);}			.st13{clip-path:url(#SVGID_00000008859972254175663070000018326870325253230720_);fill:url(#SVGID_00000152228458834945741450000006827808683450297513_);}			.st14{clip-path:url(#SVGID_00000165917262133148898980000001938794093618721675_);fill:url(#SVGID_00000016069004121080207260000011807357232673371530_);}</style><g>	<defs>		<path id="SVGID_1_" d="M1307.5,5315.7c-32.3,44.8-60.2,105.8-57,162.7c1,18.3,6.3,37.5,17,52.9c5.7,8.2,13,15.3,22,20.6   c25.9,15.3,59.7,13.4,86.5,28.2c34.1,18.8,44,60.1,47,96.2c2.9,36.1,1.9,74.5,20,105.9c18.1,31.4,65.2,49.5,91.1,24.1   c27.2-26.7,10.9-77.1,34.9-106.7c21.5-26.5,65.4-21.6,92.4-0.7c27,20.9,42.6,52.8,61.9,81c19.3,28.2,46.7,55.2,80.8,56.8   c0.9,0,1.8,0.1,2.7,0.1h0.3c51.5-0.1,86-62.7,76.2-114c-10-52.3-49.7-93.1-87.5-130.6c-36.2-35.9-72.4-71.7-108.7-107.6   c-14-13.8-29.2-31.6-24.5-50.7c4.5-18.7,27.4-28.1,46.3-24.1c18.8,4,34,17.6,47.3,31.6c27.3,28.8,51.1,61.6,84,83.8   c32.9,22.1,79,31.2,111.5,8.5c34.5-24,40.4-75.6,23-113.9c-17.4-38.3-52.3-65.5-87.9-88c-86.4-54.4-185.3-93.2-287.8-105.1   c-23.5-2.7-47.7-4.4-71.7-4.4C1443,5222,1359.9,5243,1307.5,5315.7"></path>	</defs>	<clipPath id="SVGID_00000165955857293868012800000014775212783606470329_">		<use xlink:href="#SVGID_1_" style="overflow:visible;"></use>	</clipPath>			<linearGradient id="SVGID_00000076591253502261943990000000894652702379546299_" gradientUnits="userSpaceOnUse" x1="744.03" y1="3253.9033" x2="745.03" y2="3253.9033" gradientTransform="matrix(733.7574 0 0 -733.7574 -544687.3125 2393105)">		<stop offset="0" style="stop-color:#ff3131"></stop>		<stop offset="0.326" style="stop-color:#ff3131"></stop>		<stop offset="0.6817" style="stop-color:#ff3131"></stop>		<stop offset="1" style="stop-color:#ff3131"></stop>	</linearGradient>			<rect x="1247.3" y="5222" style="clip-path:url(#SVGID_00000165955857293868012800000014775212783606470329_);fill:url(#SVGID_00000076591253502261943990000000894652702379546299_);" width="744.5" height="614.5"></rect></g><g>	<defs>		<path id="SVGID_00000154403145310340203220000004784172122750176430_" d="M346.8,3066.6c-112.7,80.8-207.7,186.6-274.1,308.5   c-28.7,52.7-52.6,115.3-31.3,171.4c37.1,97.4,188.4,121.2,207.8,223.5c9.1,48-15.9,94.9-30.5,141.5   c-14.7,46.6-13.9,107.8,28.2,132.4c40.6,23.8,91.9-2,128.4-31.7c124.3-101.1,203.3-256,212.3-416c4-72.5-5.2-147.9,21-215.6   c32.7-84.6,116.9-145.4,134.6-234.4c10-50.3-4.3-104.9-37.7-143.8c-32.6-38-70.6-52.6-110.4-52.7   C509,2949.8,414.3,3018.2,346.8,3066.6"></path>	</defs>	<clipPath id="SVGID_00000050660133032731862230000016410675412985890736_">		<use xlink:href="#SVGID_00000154403145310340203220000004784172122750176430_" style="overflow:visible;"></use>	</clipPath>			<linearGradient id="SVGID_00000173119737523247328960000002078928634440249257_" gradientUnits="userSpaceOnUse" x1="744.0019" y1="3254.1462" x2="745.0019" y2="3254.1462" gradientTransform="matrix(713.0909 0 0 -713.0909 -530507.6875 2324010.75)">		<stop offset="0" style="stop-color:#ff3131"></stop>		<stop offset="0.326" style="stop-color:#ff3131"></stop>		<stop offset="0.6817" style="stop-color:#ff3131"></stop>		<stop offset="1" style="stop-color:#ff3131"></stop>	</linearGradient>			<rect x="20.1" y="2949.8" style="clip-path:url(#SVGID_00000050660133032731862230000016410675412985890736_);fill:url(#SVGID_00000173119737523247328960000002078928634440249257_);" width="733.1" height="1117.9"></rect></g><g>	<defs>		<path id="SVGID_00000098919107321065154870000007302610937098424449_" d="M843.2,4853.6c-107.7,74-195,180.6-223.3,307.4   c-6,26.9-9.3,54.7-9.6,83.2c-2,186.4,154.1,477,378.6,450.1c54-6.5,106.6-45.5,115.3-99.3c17.6-108.3-96.7-110.1-168.8-129.9   c-99.8-27.5-174-131.4-173.7-233.4c0.3-105.2,66.4-216.2,178.4-228.1c28.6-3,56.4,5.3,84.2,13.7c27,8.1,53.9,16.2,81.7,13.9   c95.2-7.9,67-144.9,30.5-197c-28.8-41.1-66.2-56.4-106-56.4C966,4777.9,895,4818,843.2,4853.6"></path>	</defs>	<clipPath id="SVGID_00000082343728746737505980000017881138264245699227_">		<use xlink:href="#SVGID_00000098919107321065154870000007302610937098424449_" style="overflow:visible;"></use>	</clipPath>			<linearGradient id="SVGID_00000020366337251186595360000018130857817692129695_" gradientUnits="userSpaceOnUse" x1="747.5228" y1="3257.7183" x2="748.5228" y2="3257.7183" gradientTransform="matrix(-526.2512 875.829 875.829 526.2512 -2458632.5 -2364300.5)">		<stop offset="0" style="stop-color:#ff3131"></stop>		<stop offset="0.326" style="stop-color:#ff3131"></stop>		<stop offset="0.6817" style="stop-color:#ff3131"></stop>		<stop offset="1" style="stop-color:#ff3131"></stop>	</linearGradient>			<polygon style="clip-path:url(#SVGID_00000082343728746737505980000017881138264245699227_);fill:url(#SVGID_00000020366337251186595360000018130857817692129695_);" points="  1617.7,5028.2 1043.9,5983 191.8,5471 765.6,4516.2  "></polygon></g><g>	<defs>		<path id="SVGID_00000155862023307224770790000013246638751868248991_" d="M1479.8,1200.7c-111.4,7.9-183.2,115.5-164.7,225.1   c12.6,74.7,70.5,139.8,143.1,161.3c40.5,12,85.2,10.8,124-6.1c25.5-11.1,48-28.7,66-50c50.5-60.1,60.9-150.9,25.2-220.9   c-33.7-66.1-106.5-109.9-180.5-109.9C1488.5,1200.3,1484.2,1200.4,1479.8,1200.7"></path>	</defs>	<clipPath id="SVGID_00000138568582783437396990000011338762351646463422_">		<use xlink:href="#SVGID_00000155862023307224770790000013246638751868248991_" style="overflow:visible;"></use>	</clipPath>			<linearGradient id="SVGID_00000176017936096743485430000001962523731471593892_" gradientUnits="userSpaceOnUse" x1="750.6913" y1="3257.5347" x2="751.6913" y2="3257.5347" gradientTransform="matrix(-174.9725 433.0721 433.0721 174.9725 -1277779.875 -893965.375)">		<stop offset="0" style="stop-color:#ff3131"></stop>		<stop offset="0.326" style="stop-color:#ff3131"></stop>		<stop offset="0.6817" style="stop-color:#ff3131"></stop>		<stop offset="1" style="stop-color:#ff3131"></stop>	</linearGradient>			<polygon style="clip-path:url(#SVGID_00000138568582783437396990000011338762351646463422_);fill:url(#SVGID_00000176017936096743485430000001962523731471593892_);" points="  1847.6,1256.2 1651.2,1742.4 1158.1,1543.1 1354.5,1057  "></polygon></g><g>	<defs>		<path id="SVGID_00000183221334464235204440000003747925179925601429_" d="M477.9,2064.2c-40.5,33.5-65.3,81.3-84.7,129.3   c-41.2,102.1-62.6,212-62.4,321.6c0.2,100.5,42.1,104.3,138.4,119c106.1,16.3,213.2,27,320.5,32.2   c208.2,10.1,417.6-0.8,623.5-32.7c60.8-9.4,127.6-24.5,162.4-73.5c25.1-35.5,27.5-82.5,16.5-124.1c-11-41.7-33.8-79.4-56.4-116.5   c-15-24.5-30.3-49.5-52.4-68.4c-22.1-18.8-52.6-30.8-81.3-24.3c-39.3,8.8-63.1,48.4-70.6,86.7c-7.5,38.2-3.4,77.9-10.9,116.2   c-4.9,25.2-20,53.6-46.4,55.6c-18.9,1.5-36.2-12-44.8-28.2c-8.6-16.3-10.3-35-12.3-53.2c-8.8-82-26.7-167.1-80.9-230.8   c-54.2-63.7-154.3-97.4-228-55.8c-47.5,26.8-74.9,78.9-84.4,131.3c-9.5,52.4-3.6,106,0.7,159.1c1.7,20.3,3,41.5-5.1,60.3   c-8.1,18.8-28.5,34.4-49.2,30.5c-30.3-5.7-38.4-43.2-39.9-73c-3.2-61.5-6.4-123-9.5-184.4c-2-39.6-4.2-79.9-17.4-117.5   c-13.2-37.6-39.1-72.8-76.7-88.8c-14.8-6.3-30.6-9.1-46.5-9.1C543.5,2025.7,506.1,2040.8,477.9,2064.2"></path>	</defs>	<clipPath id="SVGID_00000003095207598365121960000008283700830702455729_">		<use xlink:href="#SVGID_00000183221334464235204440000003747925179925601429_" style="overflow:visible;"></use>	</clipPath>			<linearGradient id="SVGID_00000048465755072021732610000000399938563312236972_" gradientUnits="userSpaceOnUse" x1="744.4383" y1="3255.2163" x2="745.4383" y2="3255.2163" gradientTransform="matrix(1267.4041 0 0 -1267.4041 -943173.4375 4128025.5)">		<stop offset="0" style="stop-color:#ff3131"></stop>		<stop offset="0.326" style="stop-color:#ff3131"></stop>		<stop offset="0.6817" style="stop-color:#ff3131"></stop>		<stop offset="1" style="stop-color:#ff3131"></stop>	</linearGradient>			<rect x="330.6" y="2025.7" style="clip-path:url(#SVGID_00000003095207598365121960000008283700830702455729_);fill:url(#SVGID_00000048465755072021732610000000399938563312236972_);" width="1272.3" height="650.7"></rect></g><g>	<defs>		<path id="SVGID_00000106112973705873900770000001943965052153099449_" d="M1128.4,4068c28.7,23.1,43.4,59,50.8,87.2   c4.7,18.1,7.8,36.7,10.7,54.7c3.3,20.4,6.8,41.4,12.7,61.4c8.9,30.3,23.5,59,37.7,86.8l80.8,158.7l-2.2,1.8l-89.6-151.3   c-14.4-28.2-36.9-55.4-46-86.5c-6-20.6-3.3-47.3-6.7-68c-2.9-17.8-2.5-37.3-7.1-54.9c-7.2-27.5-21.5-62.7-49.8-83.9   c-34.6,30.8-34.7,132.1-25.9,167.2c13,72.9,51.1,138.9,94.8,198.5c70.6,98.9,173.8,191.9,299.2,197.1   c-71.5-95.2-122.6-198.4-154.7-303.9c-15.5-50.8-26.8-102.4-51.1-146.7c-23.7-40.5-78.7-111.5-132.6-120.7   c-2.3-0.4-4.6-0.6-6.7-0.6C1137.5,4064.9,1132.7,4066,1128.4,4068 M1135.3,3870.2c-2.9,3-5.2,6.1-7.1,9.2   c40.4-10.1,81.6,5.8,109.8,21.4c16.3,9.1,31.9,19.7,47,30c17,11.7,34.6,23.7,53.1,33.3c28,14.5,58.9,23.8,88.7,32.8l170.5,51.3   l-1.7,4.1l-174.1-36.8c-30.3-9.1-62.7-18.1-91.5-33c-19-9.9-38.8-26.2-56-38c-14.9-10.2-30.4-19.2-46.3-28.1   c-28.3-15.7-64.7-38.4-104.2-25.1l-0.2-0.7c-16.8,60.5,105.8,143.1,147.5,166.3c79.6,44.3,169.3,66.6,257.8,88.4   c146,36,303.2,71.6,443.5,17.4c-129.7-79.8-259.4-159.5-389.1-239.3c-62.3-38.3-126.1-77.3-197.5-93.2c-22.2-5-51.7-8.1-83.1-8.1   C1239.9,3822,1170,3834.6,1135.3,3870.2"></path>	</defs>	<clipPath id="SVGID_00000022546789448948416650000017563793194055666079_">		<use xlink:href="#SVGID_00000106112973705873900770000001943965052153099449_" style="overflow:visible;"></use>	</clipPath>			<linearGradient id="SVGID_00000061473451966035232050000017741254924832398238_" gradientUnits="userSpaceOnUse" x1="743.4849" y1="3263.5103" x2="744.4849" y2="3263.5103" gradientTransform="matrix(-351.1206 -190.6429 -190.6429 351.1206 884927.9375 -999817.5)">		<stop offset="0" style="stop-color:#ff3131"></stop>		<stop offset="0.326" style="stop-color:#ff3131"></stop>		<stop offset="0.6817" style="stop-color:#ff3131"></stop>		<stop offset="1" style="stop-color:#ff3131"></stop>	</linearGradient>			<polygon style="clip-path:url(#SVGID_00000022546789448948416650000017563793194055666079_);fill:url(#SVGID_00000061473451966035232050000017741254924832398238_);" points="  1770.1,5008.7 743.3,4451.3 1286.9,3450.1 2313.7,4007.5  "></polygon></g><g>	<defs>		<path id="SVGID_00000178901220444829690920000010833250380431554461_" d="M483.6,1328.8c-17.8,27.2-20.9,61.1-17.6,92.6   c3.7,36.1,11.2,72,17.3,107.8c12.5,73.4,25,146.9,37.5,220.3c5.3,31.3,13.2,67.8,0.6,98.4c-8,19.4-28.2,39.6-50.9,34.4   c-39.3-9.1-40.9-76.7-41.8-109.6c-2-73.8-4-147.6-6-221.4c-1.4-52.2,4.8-119.7-34.3-161.1c-19.9-21-50.9-26.6-77.1-14.6   c-28.2,12.9-44.9,41.6-49.3,71.4c-5.3,35.6,2.1,72.7,5.9,108.2c3.9,37,7.9,74,11.8,111c3.8,36.1,7.8,72.3,11.5,108.4   c2.5,24.5,4.4,50.4-3.2,74.1c-6.1,19.1-21.5,32-42.3,29.3c-27-3.5-45.1-26.1-55.5-49.4c-12.7-28.4-18.1-60.9-22.9-91.4   c-4.9-31.1-7.1-62.7-7.3-94.3c-0.5-65.3,8.7-130.3,27.2-193c9-30.3,20-60,33.4-88.7c5.4-11.6,3.3-25.4-8.5-32.3   c-10.2-6-26.9-3.1-32.3,8.5c-56,120.6-78.3,255.7-61.4,387.8c7.5,58.5,17.3,134.4,66,174.3c23.5,19.3,53.5,29.6,83.8,24.2   c27.6-4.9,49.7-25.3,60.6-50.5c10.5-24.3,12.5-51.5,11.2-77.8c-1.6-32.9-6.4-65.8-9.9-98.5c-4-37.9-8-75.7-12.1-113.6   c-3.7-35.3-9.4-70.9-10.6-106.4c-0.7-20.7,3.4-60,31.9-60.9c16.2-0.5,24.6,19.5,28.9,35.4c7.1,26.4,5.9,54.3,6.6,81.4   c1,38.2,2.1,76.4,3.1,114.6c1,36.5,2,72.9,3,109.4c0.7,27.5,1.3,54.9,7.1,81.9c10.7,49.9,45.8,99.7,103.2,90.2   c29-4.8,54-26.2,67.9-51.5c16.7-30.5,17.6-66.4,13.3-100.1c-9.3-73.6-24.3-146.8-36.8-219.9c-6.1-35.9-12.3-71.7-18.3-107.6   c-5-29.8-11.7-64.8,4-92.6c11.9-21,33.4-30.9,55.5-18.2c25.5,14.6,34.8,43,39.7,70.3c6.4,35.2,7.9,71.7,11.4,107.2   c3.6,36.5,7.2,73,10.8,109.5c3.6,36.3,6.6,72.7,10.8,109c3.8,33.2,9.6,66.8,26.3,96.4c28.8,50.8,97.7,83.3,149.4,44.7   c56.8-42.4,47.5-117.1,31.6-177.1c-18.9-71.7-38.2-143.2-57.3-214.8c-8.7-32.7-21.9-69.3-14.6-103.5c4.1-19.3,17.9-43.2,39.5-46.1   c13-1.7,35.7,13.9,28.1,28.6c-13.8,27,26.9,50.9,40.8,23.8c29.3-57.2-36.2-116.5-92.5-94.5c-28.2,11.1-47.4,35.3-57.8,63.1   c-12.1,32.5-6.9,69.1,0.8,101.9c16.8,71.8,37.9,142.9,56.9,214.1c8.8,33.1,21.1,67.4,22,101.9c0.6,24.5-6.3,53.5-28.9,66.9   c-20.7,12.3-45.7,2.1-61.8-13.2c-21.3-20.3-28.8-50.1-33.3-78.3c-5.7-35.4-7.7-71.7-11.2-107.4c-3.6-36.5-7.2-73-10.8-109.5   c-3.6-36.3-6.5-72.7-10.9-108.9c-3.9-32.4-10.1-66.1-29.9-92.9c-18.2-24.6-45.4-42.8-76.6-44.5c-1.3-0.1-2.7-0.1-4-0.1   C525.7,1286,499.6,1304.3,483.6,1328.8"></path>	</defs>	<clipPath id="SVGID_00000017481772562256807390000011132979645908341438_">		<use xlink:href="#SVGID_00000178901220444829690920000010833250380431554461_" style="overflow:visible;"></use>	</clipPath>			<linearGradient id="SVGID_00000149382243885003192190000003619941357041077688_" gradientUnits="userSpaceOnUse" x1="744.0965" y1="3254.1389" x2="745.0965" y2="3254.1389" gradientTransform="matrix(787.7621 0 0 -787.7621 -586058.125 2565092)">		<stop offset="0" style="stop-color:#ff3131"></stop>		<stop offset="0.326" style="stop-color:#ff3131"></stop>		<stop offset="0.6817" style="stop-color:#ff3131"></stop>		<stop offset="1" style="stop-color:#ff3131"></stop>	</linearGradient>			<rect x="101.6" y="1270.8" style="clip-path:url(#SVGID_00000017481772562256807390000011132979645908341438_);fill:url(#SVGID_00000149382243885003192190000003619941357041077688_);" width="821.2" height="667.8"></rect></g><g>	<defs>		<path id="SVGID_00000008871627531261294410000012707665399537691521_" d="M139.7,282.2c12.6,29.2,35.8,52.8,61.7,71.2   c22.6,16.1,48.9,29.2,76.7,29.3c27.8,0.1,57-15.7,65.6-42.2c19.6-60.4-75.1-151.3-123.6-174.6c-10.4-5-19.9-7.2-28.6-7.2   C140.5,158.8,119.7,235.7,139.7,282.2"></path>	</defs>	<clipPath id="SVGID_00000170996810121297273640000009776621629229545610_">		<use xlink:href="#SVGID_00000008871627531261294410000012707665399537691521_" style="overflow:visible;"></use>	</clipPath>			<linearGradient id="SVGID_00000091702256949863139680000008749487001590595472_" gradientUnits="userSpaceOnUse" x1="748.169" y1="3259.0039" x2="749.169" y2="3259.0039" gradientTransform="matrix(178.9953 712.6104 -712.6104 178.9953 2188745.25 -1116138.875)">		<stop offset="0" style="stop-color:#ff3131"></stop>		<stop offset="0.326" style="stop-color:#ff3131"></stop>		<stop offset="0.6817" style="stop-color:#ff3131"></stop>		<stop offset="1" style="stop-color:#ff3131"></stop>	</linearGradient>			<polygon style="clip-path:url(#SVGID_00000170996810121297273640000009776621629229545610_);fill:url(#SVGID_00000091702256949863139680000008749487001590595472_);" points="  66.8,172.1 134.2,440.4 416.3,369.5 348.9,101.3  "></polygon></g><g>	<defs>		<path id="SVGID_00000149349460252004523850000013476677630109887649_" d="M533.1,114c-51.4,0.1-78.2,59.2-74.3,105.5   c2.1,24.1,9.4,48.6,25.5,66.7c16,18.1,41.9,28.7,65.2,22.2c27.5-7.7,44.5-36.1,50.3-64.1c8.6-41.2-0.5-117.7-51.1-128.6   c-5.4-1.2-10.5-1.7-15.5-1.7H533.1z"></path>	</defs>	<clipPath id="SVGID_00000159471219900500329990000012420311884628165021_">		<use xlink:href="#SVGID_00000149349460252004523850000013476677630109887649_" style="overflow:visible;"></use>	</clipPath>			<linearGradient id="SVGID_00000095303104905651420810000006120669042975323327_" gradientUnits="userSpaceOnUse" x1="748.169" y1="3258.6023" x2="749.169" y2="3258.6023" gradientTransform="matrix(178.9953 712.6104 -712.6104 178.9953 2188745.25 -1116138.875)">		<stop offset="0" style="stop-color:#ff3131"></stop>		<stop offset="0.326" style="stop-color:#ff3131"></stop>		<stop offset="0.6817" style="stop-color:#ff3131"></stop>		<stop offset="1" style="stop-color:#ff3131"></stop>	</linearGradient>			<polygon style="clip-path:url(#SVGID_00000159471219900500329990000012420311884628165021_);fill:url(#SVGID_00000095303104905651420810000006120669042975323327_);" points="  407.4,126 463.9,351.2 655.8,303 599.3,77.8  "></polygon></g><g>	<defs>		<path id="SVGID_00000046302903431578597640000017185605041401992124_" d="M448.8,384.5c-62.5,8.6-134,56.2-99.5,128.9   c16,33.7,57.8,53.4,93.6,42.7c24.9-7.4,44.4-27.1,58.7-48.7c32.9-49.6,23.1-123.8-40.3-123.8C457.3,383.6,453.1,383.9,448.8,384.5   "></path>	</defs>	<clipPath id="SVGID_00000002345985572141352510000017031828865704705963_">		<use xlink:href="#SVGID_00000046302903431578597640000017185605041401992124_" style="overflow:visible;"></use>	</clipPath>			<linearGradient id="SVGID_00000109743187113880688230000015917080409154175115_" gradientUnits="userSpaceOnUse" x1="748.169" y1="3258.8301" x2="749.169" y2="3258.8301" gradientTransform="matrix(178.9953 712.6104 -712.6104 178.9953 2188745.25 -1116138.875)">		<stop offset="0" style="stop-color:#ff3131"></stop>		<stop offset="0.326" style="stop-color:#ff3131"></stop>		<stop offset="0.6817" style="stop-color:#ff3131"></stop>		<stop offset="1" style="stop-color:#ff3131"></stop>	</linearGradient>			<polygon style="clip-path:url(#SVGID_00000002345985572141352510000017031828865704705963_);fill:url(#SVGID_00000109743187113880688230000015917080409154175115_);" points="  271.5,394.4 327.8,618.7 577.7,555.9 521.4,331.7  "></polygon></g><g>	<defs>		<path id="SVGID_00000030463421830685568540000006166481441806013073_" d="M668.1,415.7c-68.7,24.2-64.1,128,15.7,127.1   c23.9-0.3,47-12.7,62.1-31.3c36.5-44.8-8.3-99.4-57-99.4C682,412.1,675,413.3,668.1,415.7"></path>	</defs>	<clipPath id="SVGID_00000078765698951970326330000009720535738633510786_">		<use xlink:href="#SVGID_00000030463421830685568540000006166481441806013073_" style="overflow:visible;"></use>	</clipPath>			<linearGradient id="SVGID_00000109714613277657782880000009398818598244107691_" gradientUnits="userSpaceOnUse" x1="748.169" y1="3258.4795" x2="749.169" y2="3258.4795" gradientTransform="matrix(178.9953 712.6104 -712.6104 178.9953 2188745.25 -1116138.875)">		<stop offset="0" style="stop-color:#ff3131"></stop>		<stop offset="0.326" style="stop-color:#ff3131"></stop>		<stop offset="0.6817" style="stop-color:#ff3131"></stop>		<stop offset="1" style="stop-color:#ff3131"></stop>	</linearGradient>			<polygon style="clip-path:url(#SVGID_00000078765698951970326330000009720535738633510786_);fill:url(#SVGID_00000109714613277657782880000009398818598244107691_);" points="  568.3,419.9 610.2,587 813.5,535.9 771.6,368.9  "></polygon></g><g>	<defs>		<path id="SVGID_00000000216486505102622210000011867146847810426519_" d="M480.3,674.6c-19,21.8-34.1,48.1-37.3,76.8   c-3.2,28.7,7.4,60,31,76.6c30.4,21.3,74.8,12.8,102.6-11.9c28.1-24.9,42.1-64.6,36.1-101.6c-4.6-28.3-26.3-68.6-54.7-80.1   c-5.3-2.1-10.4-3.1-15.3-3.1C517.7,631.4,497,655.4,480.3,674.6"></path>	</defs>	<clipPath id="SVGID_00000138531917795499012170000018113067957634581427_">		<use xlink:href="#SVGID_00000000216486505102622210000011867146847810426519_" style="overflow:visible;"></use>	</clipPath>			<linearGradient id="SVGID_00000148632197178401910190000017890555092412400804_" gradientUnits="userSpaceOnUse" x1="748.169" y1="3258.7798" x2="749.169" y2="3258.7798" gradientTransform="matrix(178.9953 712.6104 -712.6104 178.9953 2188745.25 -1116138.875)">		<stop offset="0" style="stop-color:#ff3131"></stop>		<stop offset="0.326" style="stop-color:#ff3131"></stop>		<stop offset="0.6817" style="stop-color:#ff3131"></stop>		<stop offset="1" style="stop-color:#ff3131"></stop>	</linearGradient>			<polygon style="clip-path:url(#SVGID_00000138531917795499012170000018113067957634581427_);fill:url(#SVGID_00000148632197178401910190000017890555092412400804_);" points="  388.3,644.3 450.4,891.6 670.2,836.4 608.1,589.1  "></polygon></g><g>	<defs>		<path id="SVGID_00000120525617760842272430000017434208717296407692_" d="M116.7,565.8c-10.6,21.9-9.1,48.2-0.3,70.9   c8.8,22.7,24.1,42.2,40.8,60c21.7,23.2,51.5,45.5,82.3,37.9c23.8-5.9,40.5-29.6,42.9-54c2.4-24.4-7.3-48.7-21.9-68.5   c-20.5-27.7-65.2-77.4-102.8-77.4C142,534.7,127.6,543.3,116.7,565.8"></path>	</defs>	<clipPath id="SVGID_00000162310831900427709830000016111678981483065243_">		<use xlink:href="#SVGID_00000120525617760842272430000017434208717296407692_" style="overflow:visible;"></use>	</clipPath>			<linearGradient id="SVGID_00000129886347811273105910000008808644924932118206_" gradientUnits="userSpaceOnUse" x1="748.169" y1="3259.1865" x2="749.169" y2="3259.1865" gradientTransform="matrix(178.9953 712.6104 -712.6104 178.9953 2188745.25 -1116138.875)">		<stop offset="0" style="stop-color:#ff3131"></stop>		<stop offset="0.326" style="stop-color:#ff3131"></stop>		<stop offset="0.6817" style="stop-color:#ff3131"></stop>		<stop offset="1" style="stop-color:#ff3131"></stop>	</linearGradient>			<polygon style="clip-path:url(#SVGID_00000162310831900427709830000016111678981483065243_);fill:url(#SVGID_00000129886347811273105910000008808644924932118206_);" points="  57,547 116.7,784.4 333.9,729.9 274.2,492.4  "></polygon></g><g>	<defs>		<path id="SVGID_00000132767913687094323800000004010755310629238165_" d="M675.6,1002c13.5,21.6,35.8,36.2,59.3,45.8   c28.9,11.8,61.5,16.8,91.7,8.8c30.2-8.1,57.4-30.7,66.1-60.7c4.3-14.8,3.9-31-1.6-45.4C880,921.8,849.8,904,819.4,899   c-9.2-1.5-20.2-2.3-32.2-2.3C720.5,896.6,626,922.6,675.6,1002"></path>	</defs>	<clipPath id="SVGID_00000060029191889496676140000004645075450639959440_">		<use xlink:href="#SVGID_00000132767913687094323800000004010755310629238165_" style="overflow:visible;"></use>	</clipPath>			<linearGradient id="SVGID_00000029008809931342420090000001134320174500696254_" gradientUnits="userSpaceOnUse" x1="748.169" y1="3258.553" x2="749.169" y2="3258.553" gradientTransform="matrix(178.9953 712.6104 -712.6104 178.9953 2188745.25 -1116138.875)">		<stop offset="0" style="stop-color:#ff3131"></stop>		<stop offset="0.326" style="stop-color:#ff3131"></stop>		<stop offset="0.6817" style="stop-color:#ff3131"></stop>		<stop offset="1" style="stop-color:#ff3131"></stop>	</linearGradient>			<polygon style="clip-path:url(#SVGID_00000060029191889496676140000004645075450639959440_);fill:url(#SVGID_00000029008809931342420090000001134320174500696254_);" points="  586.3,906.6 642,1128.8 936.7,1054.8 880.9,832.6  "></polygon></g><g>	<defs>		<path id="SVGID_00000000219851276211552700000002954155155413372823_" d="M439.8,955.9c-16.1,28.6-3.6,69.5,25.7,84.3   c29.3,14.8,69.6,0.4,83-29.6c20.8-46.7-18.8-85.6-58.2-85.6C471.1,925,452,934.1,439.8,955.9"></path>	</defs>	<clipPath id="SVGID_00000074421826642230316140000014086739903389115576_">		<use xlink:href="#SVGID_00000000219851276211552700000002954155155413372823_" style="overflow:visible;"></use>	</clipPath>			<linearGradient id="SVGID_00000090269635179111518720000010025821870694729613_" gradientUnits="userSpaceOnUse" x1="748.169" y1="3258.906" x2="749.169" y2="3258.906" gradientTransform="matrix(178.9953 712.6104 -712.6104 178.9953 2188745.25 -1116138.875)">		<stop offset="0" style="stop-color:#ff3131"></stop>		<stop offset="0.326" style="stop-color:#ff3131"></stop>		<stop offset="0.6817" style="stop-color:#ff3131"></stop>		<stop offset="1" style="stop-color:#ff3131"></stop>	</linearGradient>			<polygon style="clip-path:url(#SVGID_00000074421826642230316140000014086739903389115576_);fill:url(#SVGID_00000090269635179111518720000010025821870694729613_);" points="  392.9,932.7 432.3,1089.4 599.9,1047.3 560.6,890.6  "></polygon></g></svg>