<svg xmlns="http://www.w3.org/2000/svg" xmlns:xlink="http://www.w3.org/1999/xlink" id="Calque_1" x="0px" y="0px" viewBox="0 0 2000 4880" style="enable-background:new 0 0 2000 4880;" xml:space="preserve"><style type="text/css">			.st0{clip-path:url(#SVGID_00000080201952691059872810000003500920337273352598_);fill:url(#SVGID_00000122693674882563637440000009155587261573344675_);}			.st1{clip-path:url(#SVGID_00000003792126374906547290000007885835941195219075_);fill:url(#SVGID_00000072963491251815150330000018374981523955158168_);}			.st2{clip-path:url(#SVGID_00000163775511980571837200000009625789251317011349_);fill:url(#SVGID_00000132772452861841859900000011210068453020839830_);}			.st3{clip-path:url(#SVGID_00000067226692874128930650000016900544468127157669_);fill:url(#SVGID_00000099649314361236094130000006330510991576833435_);}			.st4{clip-path:url(#SVGID_00000158743068244368224600000009841128705505516190_);fill:url(#SVGID_00000100368501069351025340000007066129017774389153_);}			.st5{clip-path:url(#SVGID_00000025437809014383214790000013380714873078638245_);fill:url(#SVGID_00000062173113578032132220000008227974105449032125_);}			.st6{clip-path:url(#SVGID_00000130630015476261212190000000768401686390555776_);fill:url(#SVGID_00000005233473399943489550000000864085282642477464_);}			.st7{clip-path:url(#SVGID_00000134959656834227392130000004810227813597950366_);fill:url(#SVGID_00000076569114898308967250000003357528329936157080_);}			.st8{clip-path:url(#SVGID_00000010271679945254429030000011450051410431465374_);fill:url(#SVGID_00000144299326532102107640000013976561899915941563_);}			.st9{clip-path:url(#SVGID_00000182519465397363738460000001640743932417180862_);fill:url(#SVGID_00000112633636538255590520000004678170623938428063_);}			.st10{clip-path:url(#SVGID_00000147178973795051444130000000779370847348872880_);fill:url(#SVGID_00000136396363824862051210000008262205490324139697_);}			.st11{clip-path:url(#SVGID_00000070817150258646570040000008917918154051777719_);fill:url(#SVGID_00000025412891150615410650000007478511461944692102_);}</style><g>	<defs>		<path id="SVGID_1_" d="M747,3718.8c-34.3,40.2-30.5,98.9-37.2,151.3c-6.8,52.4-40.5,113.1-93.1,108.7   c-45.7-3.8-70.6-52.9-96.5-90.8c-97.4-142-111.1,32.9-154.3,78.4c-55.1,58-114,21.2-180,17.8c-202.6-10.3-170.3,284.9-127.1,428.6   c20.5,67.9,55,135.6,114.8,173.6c59.8,38,149.3,35.5,192.7-20.5c77.6-100-36-273.7,53.5-363.2c62.5,52.7,63.5,146,70.7,227.4   c7.2,81.4,42,178.3,122.8,190.6c70.2,10.7,132.4-55,148.3-124.2c15.9-69.2-0.6-141-8.8-211.5c-8.2-70.5-5.7-148.7,40-203   c65.9,44.1,76.3,134.3,93,211.8c16.7,77.5,65.9,166.5,145.1,162.8c45.3-2.2,84.1-37.3,102.4-78.8c18.3-41.5,19.6-88.4,17.1-133.8   c-8.4-152.8-56.7-303.2-138.8-432.4c-29.3-46.1-64.7-91.1-114-114.6c-19.7-9.4-42-14.4-64-14.4   C800.6,3682.5,768.3,3693.8,747,3718.8"></path>	</defs>	<clipPath id="SVGID_00000181771322901164635660000006022738011314689175_">		<use xlink:href="#SVGID_1_" style="overflow:visible;"></use>	</clipPath>			<linearGradient id="SVGID_00000170246788772834710080000002515169573191565232_" gradientUnits="userSpaceOnUse" x1="743.4328" y1="2696.1887" x2="744.4328" y2="2696.1887" gradientTransform="matrix(1046.5801 -412.2588 -412.2588 -1046.5801 333504 3132629.75)">		<stop offset="0" style="stop-color:#432818"></stop>		<stop offset="0.326" style="stop-color:#432818"></stop>		<stop offset="0.6817" style="stop-color:#432818"></stop>		<stop offset="1" style="stop-color:#432818"></stop>	</linearGradient>			<polygon style="clip-path:url(#SVGID_00000181771322901164635660000006022738011314689175_);fill:url(#SVGID_00000170246788772834710080000002515169573191565232_);" points="  -340.3,3809.9 995.9,3283.6 1476.5,4503.9 140.4,5030.2  "></polygon></g><g>	<defs>		<path id="SVGID_00000034797048673394540600000002084266580083791514_" d="M1529.9,186.7c-48.5,23.3-143.3,114.1-123.6,174.5   c8.6,26.4,37.8,42.3,65.6,42.2c27.8-0.1,54-13.2,76.7-29.3c25.9-18.5,49.1-42,61.7-71.2c20-46.4-0.8-123.3-51.8-123.3   C1549.8,179.5,1540.3,181.7,1529.9,186.7"></path>	</defs>	<clipPath id="SVGID_00000115507585469608618170000010875772463152282249_">		<use xlink:href="#SVGID_00000034797048673394540600000002084266580083791514_" style="overflow:visible;"></use>	</clipPath>			<linearGradient id="SVGID_00000065035476359290721880000008287867086108893878_" gradientUnits="userSpaceOnUse" x1="742.6078" y1="2696.6909" x2="743.6078" y2="2696.6909" gradientTransform="matrix(557.016 -647.5908 -647.5908 -557.016 1333696.75 1983901.5)">		<stop offset="0" style="stop-color:#432818"></stop>		<stop offset="0.326" style="stop-color:#432818"></stop>		<stop offset="0.6817" style="stop-color:#432818"></stop>		<stop offset="1" style="stop-color:#432818"></stop>	</linearGradient>			<polygon style="clip-path:url(#SVGID_00000115507585469608618170000010875772463152282249_);fill:url(#SVGID_00000065035476359290721880000008287867086108893878_);" points="  1275.9,308.2 1490.3,59 1741.1,274.7 1526.7,523.9  "></polygon></g><g>	<defs>		<path id="SVGID_00000034811792123432753720000002953557334816543652_" d="M1201.3,136.4c-50.6,10.9-59.7,87.4-51.1,128.6   c5.8,28,22.8,56.4,50.3,64.1c23.3,6.5,49.2-4.1,65.2-22.2c16-18.1,23.4-42.6,25.5-66.7c4-46.4-22.9-105.5-74.3-105.5   C1211.9,134.7,1206.8,135.2,1201.3,136.4"></path>	</defs>	<clipPath id="SVGID_00000109008477994140969570000016797957677402499976_">		<use xlink:href="#SVGID_00000034811792123432753720000002953557334816543652_" style="overflow:visible;"></use>	</clipPath>			<linearGradient id="SVGID_00000135679211096059646860000003448460227362601360_" gradientUnits="userSpaceOnUse" x1="742.6078" y1="2696.9912" x2="743.6078" y2="2696.9912" gradientTransform="matrix(557.016 -647.5908 -647.5908 -557.016 1333696.75 1983901.5)">		<stop offset="0" style="stop-color:#432818"></stop>		<stop offset="0.326" style="stop-color:#432818"></stop>		<stop offset="0.6817" style="stop-color:#432818"></stop>		<stop offset="1" style="stop-color:#432818"></stop>	</linearGradient>			<polygon style="clip-path:url(#SVGID_00000109008477994140969570000016797957677402499976_);fill:url(#SVGID_00000135679211096059646860000003448460227362601360_);" points="  1042.3,250.1 1206.9,58.8 1394.5,220.1 1229.9,411.5  "></polygon></g><g>	<defs>		<path id="SVGID_00000022554407473667393240000016344614351035969214_" d="M1248.5,528c14.3,21.6,33.8,41.3,58.7,48.7   c35.8,10.7,77.6-9,93.6-42.7c34.5-72.7-37-120.3-99.5-128.9c-4.4-0.6-8.5-0.9-12.5-0.9C1225.4,404.2,1215.6,478.4,1248.5,528"></path>	</defs>	<clipPath id="SVGID_00000165228906136818609420000009936769491186888344_">		<use xlink:href="#SVGID_00000022554407473667393240000016344614351035969214_" style="overflow:visible;"></use>	</clipPath>			<linearGradient id="SVGID_00000114766847947784597000000006670203276342599597_" gradientUnits="userSpaceOnUse" x1="742.6078" y1="2696.6973" x2="743.6078" y2="2696.6973" gradientTransform="matrix(557.016 -647.5908 -647.5908 -557.016 1333696.75 1983901.5)">		<stop offset="0" style="stop-color:#432818"></stop>		<stop offset="0.326" style="stop-color:#432818"></stop>		<stop offset="0.6817" style="stop-color:#432818"></stop>		<stop offset="1" style="stop-color:#432818"></stop>	</linearGradient>			<polygon style="clip-path:url(#SVGID_00000165228906136818609420000009936769491186888344_);fill:url(#SVGID_00000114766847947784597000000006670203276342599597_);" points="  1125,509.5 1309,295.6 1525.8,482.1 1341.8,696  "></polygon></g><g>	<defs>		<path id="SVGID_00000050658479524497218980000006546207731713301150_" d="M1004.1,532.2c15.1,18.6,38.2,31,62.1,31.3   c79.8,0.9,84.5-102.9,15.7-127.1c-6.9-2.4-13.9-3.5-20.9-3.5C1012.4,432.8,967.6,487.3,1004.1,532.2"></path>	</defs>	<clipPath id="SVGID_00000104693636856669648190000007008606400863550370_">		<use xlink:href="#SVGID_00000050658479524497218980000006546207731713301150_" style="overflow:visible;"></use>	</clipPath>			<linearGradient id="SVGID_00000133515278007825178830000006030523543133347225_" gradientUnits="userSpaceOnUse" x1="742.6078" y1="2696.9316" x2="743.6078" y2="2696.9316" gradientTransform="matrix(557.016 -647.5908 -647.5908 -557.016 1333696.75 1983901.5)">		<stop offset="0" style="stop-color:#432818"></stop>		<stop offset="0.326" style="stop-color:#432818"></stop>		<stop offset="0.6817" style="stop-color:#432818"></stop>		<stop offset="1" style="stop-color:#432818"></stop>	</linearGradient>			<polygon style="clip-path:url(#SVGID_00000104693636856669648190000007008606400863550370_);fill:url(#SVGID_00000133515278007825178830000006030523543133347225_);" points="  902.5,508.4 1045.4,342.3 1215.7,488.7 1072.8,654.9  "></polygon></g><g>	<defs>		<path id="SVGID_00000139258638713246684880000011176111056825890209_" d="M1192.2,655.1c-28.4,11.5-50.1,51.8-54.7,80.1   c-6.1,37,8,76.7,36.1,101.6c27.8,24.6,72.1,33.2,102.6,11.9c23.7-16.6,34.2-47.9,31.1-76.6c-3.2-28.7-18.4-55-37.3-76.8   c-16.7-19.2-37.4-43.2-62.3-43.2C1202.5,652,1197.4,653,1192.2,655.1"></path>	</defs>	<clipPath id="SVGID_00000152965107116763289310000007772322990738356905_">		<use xlink:href="#SVGID_00000139258638713246684880000011176111056825890209_" style="overflow:visible;"></use>	</clipPath>			<linearGradient id="SVGID_00000168101133595368219810000012675228760737173660_" gradientUnits="userSpaceOnUse" x1="742.6078" y1="2696.5879" x2="743.6078" y2="2696.5879" gradientTransform="matrix(557.016 -647.5908 -647.5908 -557.016 1333696.75 1983901.5)">		<stop offset="0" style="stop-color:#432818"></stop>		<stop offset="0.326" style="stop-color:#432818"></stop>		<stop offset="0.6817" style="stop-color:#432818"></stop>		<stop offset="1" style="stop-color:#432818"></stop>	</linearGradient>			<polygon style="clip-path:url(#SVGID_00000152965107116763289310000007772322990738356905_);fill:url(#SVGID_00000168101133595368219810000012675228760737173660_);" points="  1023.6,777.3 1207.4,563.6 1418,744.7 1234.2,958.4  "></polygon></g><g>	<defs>		<path id="SVGID_00000168801660700979255360000006416154264335699373_" d="M1489.5,632.7c-14.6,19.7-24.3,44.1-21.9,68.5   c2.4,24.4,19.2,48.1,42.9,54c30.8,7.6,60.6-14.7,82.3-37.9c16.6-17.7,32-37.3,40.8-59.9c8.8-22.7,10.3-49-0.3-70.9   c-10.9-22.5-25.4-31.2-41-31.2C1554.7,555.3,1510,605,1489.5,632.7"></path>	</defs>	<clipPath id="SVGID_00000152963449754908517910000011634385313560911804_">		<use xlink:href="#SVGID_00000168801660700979255360000006416154264335699373_" style="overflow:visible;"></use>	</clipPath>			<linearGradient id="SVGID_00000003093701086470297950000004017364612404780448_" gradientUnits="userSpaceOnUse" x1="742.6078" y1="2696.3694" x2="743.6078" y2="2696.3694" gradientTransform="matrix(557.016 -647.5908 -647.5908 -557.016 1333696.75 1983901.5)">		<stop offset="0" style="stop-color:#432818"></stop>		<stop offset="0.326" style="stop-color:#432818"></stop>		<stop offset="0.6817" style="stop-color:#432818"></stop>		<stop offset="1" style="stop-color:#432818"></stop>	</linearGradient>			<polygon style="clip-path:url(#SVGID_00000152963449754908517910000011634385313560911804_);fill:url(#SVGID_00000003093701086470297950000004017364612404780448_);" points="  1362.6,674.6 1541.2,466.9 1746.6,643.5 1568,851.2  "></polygon></g><g>	<defs>		<path id="SVGID_00000052069313577693694500000014437849505125579196_" d="M930.6,919.6c-30.4,5-60.6,22.8-71.7,51.6   c-5.5,14.4-5.9,30.6-1.6,45.4c8.7,30,35.8,52.6,66.1,60.7c30.2,8.1,62.8,3,91.7-8.8c23.5-9.6,45.9-24.3,59.3-45.8   c49.6-79.4-44.9-105.4-111.7-105.4C950.8,917.3,939.8,918.1,930.6,919.6"></path>	</defs>	<clipPath id="SVGID_00000170238052339543095000000013323848076723397518_">		<use xlink:href="#SVGID_00000052069313577693694500000014437849505125579196_" style="overflow:visible;"></use>	</clipPath>			<linearGradient id="SVGID_00000096037907731823983260000002976821059111093163_" gradientUnits="userSpaceOnUse" x1="742.6078" y1="2696.6104" x2="743.6078" y2="2696.6104" gradientTransform="matrix(557.016 -647.5908 -647.5908 -557.016 1333696.75 1983901.5)">		<stop offset="0" style="stop-color:#432818"></stop>		<stop offset="0.326" style="stop-color:#432818"></stop>		<stop offset="0.6817" style="stop-color:#432818"></stop>		<stop offset="1" style="stop-color:#432818"></stop>	</linearGradient>			<polygon style="clip-path:url(#SVGID_00000170238052339543095000000013323848076723397518_);fill:url(#SVGID_00000096037907731823983260000002976821059111093163_);" points="  770,1013.9 968.3,783.3 1207.2,988.8 1008.8,1219.3  "></polygon></g><g>	<defs>		<path id="SVGID_00000044171655236369337430000011760429979866551979_" d="M1201.6,1031.2c13.4,30,53.7,44.4,83,29.6   c29.3-14.8,41.8-55.7,25.7-84.3c-12.3-21.8-31.3-30.9-50.5-30.9C1220.3,945.7,1180.8,984.6,1201.6,1031.2"></path>	</defs>	<clipPath id="SVGID_00000083073553576224482750000015095515418248402066_">		<use xlink:href="#SVGID_00000044171655236369337430000011760429979866551979_" style="overflow:visible;"></use>	</clipPath>			<linearGradient id="SVGID_00000023974493577358934600000016187691412962161280_" gradientUnits="userSpaceOnUse" x1="742.6078" y1="2696.3682" x2="743.6078" y2="2696.3682" gradientTransform="matrix(557.016 -647.5908 -647.5908 -557.016 1333696.75 1983901.5)">		<stop offset="0" style="stop-color:#432818"></stop>		<stop offset="0.326" style="stop-color:#432818"></stop>		<stop offset="0.6817" style="stop-color:#432818"></stop>		<stop offset="1" style="stop-color:#432818"></stop>	</linearGradient>			<polygon style="clip-path:url(#SVGID_00000083073553576224482750000015095515418248402066_);fill:url(#SVGID_00000023974493577358934600000016187691412962161280_);" points="  1116.6,1020.4 1242.7,873.7 1390.6,1000.9 1264.5,1147.6  "></polygon></g><g>	<defs>		<path id="SVGID_00000092429918228128331160000014374457308153861531_" d="M380.9,619.2c-53.9,31.6-75.4,118.9-25.5,156.5   c22.3,16.8,52,19.6,77.3,31.4c25.3,11.8,47.5,42.2,33.5,66.4c-15.6,27.1-56.3,18.5-85.1,6.3c-82.5-34.8-165.1-69.6-247.6-104.5   C70,748.5,2.2,721.1-66,731.7c-68.2,10.6-132.8,75.6-116.2,142.7c13,52.4,67.1,83,118.2,100.3c51.1,17.3,107.3,29.1,145.6,67.1   c38.3,38,43.5,114.8-5.2,138.1c-40.1,19.2-85.6-8.5-123.3-32.1c-64.9-40.6-182-112-262.2-104.2c-54.6,5.3-82.3,62.1-82.4,115.3   v0.3c0,16.9,2.8,33.4,8.4,47.7c21.3,54.2,72.1,92.1,126.3,113.2s112.8,28,170.1,38.1c285,50.2,554.2,186.4,763.6,386.1   c31.8,30.3,62.7,62.5,101.2,83.6c38.5,21.2,86.8,29.8,126.3,10.6c58.6-28.5,75.4-109.9,49.8-169.8   c-25.7-59.9-82.2-100.7-140.4-129.9c-58.2-29.2-120.8-50.2-175-86.4c-30.5-20.3-60.7-53.3-52.1-88.9c9.4-38.9,59-52.9,98.5-46.5   c56.6,9.3,105.1,44.2,151.7,77.5c46.7,33.3,96.5,67,153.5,73c57,6,122.3-26.1,133-82.4c6.8-35.8-9.7-72.8-34.6-99.4   c-24.9-26.6-57.3-44.7-89.2-62.3c-77-42.6-154-85.2-231.1-127.8c-32.2-17.8-65.7-36.7-86.5-67c-20.9-30.3-24.9-75.7,1.2-101.8   c27.9-27.9,75.4-21.5,110.2-2.9c34.7,18.6,64.1,47.1,100.9,61.2c36.8,14,87.3,6.6,102.6-29.7c14.9-35.2-10.9-73.7-37-101.6   C853,739.3,714,655.1,563.1,613.3c-31.1-8.6-64.3-15.2-96.6-15.2C436.3,598.1,407,603.9,380.9,619.2"></path>	</defs>	<clipPath id="SVGID_00000029004645250904203000000014398604230845108393_">		<use xlink:href="#SVGID_00000092429918228128331160000014374457308153861531_" style="overflow:visible;"></use>	</clipPath>			<linearGradient id="SVGID_00000013151522198619121030000011725200079342880128_" gradientUnits="userSpaceOnUse" x1="743.0289" y1="2697.9053" x2="744.0289" y2="2697.9053" gradientTransform="matrix(505.0565 -911.146 -911.146 -505.0565 2083095.875 2041168.5)">		<stop offset="0" style="stop-color:#432818"></stop>		<stop offset="0.326" style="stop-color:#432818"></stop>		<stop offset="0.6817" style="stop-color:#432818"></stop>		<stop offset="1" style="stop-color:#432818"></stop>	</linearGradient>			<polygon style="clip-path:url(#SVGID_00000029004645250904203000000014398604230845108393_);fill:url(#SVGID_00000013151522198619121030000011725200079342880128_);" points="  -925.6,1561.6 -33.8,-47.2 1664.4,894.2 772.6,2503  "></polygon></g><g>	<defs>		<path id="SVGID_00000006682382345656402110000014853863230281739411_" d="M1356.7,1665c-125.2,122.2-225.2,299.6-288.5,477.6   c54.4-44.9,109-89.3,165.8-130.8c103.1-75.2,211.1-143,323.5-203.1c55.6-29.7,112.4-57.6,170.1-83.5   c54.1-24.3,118.9-38.6,169.1-69.3c-281.2,171.8-562.3,343.6-843.5,515.4c123.5,66,256.3,72.1,371.4,41.5   c115.1-30.7,214.8-95.6,308.5-166.7c177.5-134.7,341.9-299.2,424.9-527.4c-98.6-34.3-198.1-51.1-294.4-51.1   C1669.9,1467.6,1489.4,1535.5,1356.7,1665"></path>	</defs>	<clipPath id="SVGID_00000000920339073918586450000009228913754843735223_">		<use xlink:href="#SVGID_00000006682382345656402110000014853863230281739411_" style="overflow:visible;"></use>	</clipPath>			<linearGradient id="SVGID_00000039109422083393275460000013021088616055857292_" gradientUnits="userSpaceOnUse" x1="743.4651" y1="2696.666" x2="744.4651" y2="2696.666" gradientTransform="matrix(1002.7465 -783.4315 -783.4315 -1002.7465 1368255.25 3288769.75)">		<stop offset="0" style="stop-color:#432818"></stop>		<stop offset="0.326" style="stop-color:#432818"></stop>		<stop offset="0.6817" style="stop-color:#432818"></stop>		<stop offset="1" style="stop-color:#432818"></stop>	</linearGradient>			<polygon style="clip-path:url(#SVGID_00000000920339073918586450000009228913754843735223_);fill:url(#SVGID_00000039109422083393275460000013021088616055857292_);" points="  676.7,1761.7 1739.2,931.6 2534.5,1949.4 1471.9,2779.6  "></polygon></g><g>	<defs>		<path id="SVGID_00000132078186759037785650000007234323118141254570_" d="M1247.6,2806c-237.9,64.3-302.9,356.1-276.6,569   c4,32.7,10.1,65.1,18.3,96.9c18.7,73,101,150.7,168.7,74.7c34.9-39.2,30.5-87.5,23.7-135.6c-9.9-70.4-42.2-195,39.4-236.2   c8.9-4.5,18.6-7.4,28.3-9.3c116.2-22.8,113.4,133.8,113.9,205.3c0.4,47.2,13.7,108.9,57.8,135.8c58.8,35.9,127-2.4,165.7-49.7   c8.4-10.2,15.2-20.9,20.7-31.9c24.9-49.4,24.7-105.8,20.8-159.6c-4.3-58.6-8.9-117.4-20.5-175.1   c-20.3-101.3-63.9-203.7-155.6-259.7c-39.1-23.9-83.8-34.9-128.8-34.9C1297.9,2795.8,1272.3,2799.3,1247.6,2806 M1159.2,2376.3   c-64.8,15.9-127.4,41-185.1,74.5c-107.1,62.1-198.5,154.4-246.4,269.6c-35,84.1-47,175.3-52.9,265.5   c-5.9,90.3-10.7,180.6-14.6,271c-2.5,59.2-11,122.4,6.3,180.2c17.4,57.6,75.9,90.2,134.5,82.5c100.1-13.2,102.1-127,97.8-205.4   c-5.5-101.1-8.2-202.4,9.6-302.6c20.6-116.3,73.2-227,177.6-289.9c87.3-52.6,195.2-64.4,292.9-37c84.7,23.7,159.8,76.5,209.6,149   c56.9,82.9,75.9,183.4,84.1,281.8c4,47.5,6.3,95.4,7.8,143.1c1.6,48.9-1.3,100.6,19.7,146.2c22.4,48.6,88.5,36.7,131.5,28.8   c4.8-0.9,9.5-1.8,14.3-2.9c51.3-11.6,95.7-39.4,122.1-85.7c32.8-57.6,11.2-130,0.9-191c-10.7-63.2-22.1-126.2-36.6-188.6   c-28.9-124.1-70.3-247.7-143.1-353.4c-27.1-39.3-58.3-75.7-93.4-108.1c-54.7-50.3-119.2-89.1-189.3-113.6   c-62.7-21.9-128.6-32.4-194.6-32.4C1260.7,2357.7,1209.3,2364,1159.2,2376.3"></path>	</defs>	<clipPath id="SVGID_00000119091492132320390530000002483844380006597542_">		<use xlink:href="#SVGID_00000132078186759037785650000007234323118141254570_" style="overflow:visible;"></use>	</clipPath>			<linearGradient id="SVGID_00000063593016630139165320000011827979992001088396_" gradientUnits="userSpaceOnUse" x1="743.5688" y1="2698.5645" x2="744.5688" y2="2698.5645" gradientTransform="matrix(-73.6245 -1203.7506 -1203.7506 73.6245 3304503.5 699952.625)">		<stop offset="0" style="stop-color:#432818"></stop>		<stop offset="0.326" style="stop-color:#432818"></stop>		<stop offset="0.6817" style="stop-color:#432818"></stop>		<stop offset="1" style="stop-color:#432818"></stop>	</linearGradient>			<polygon style="clip-path:url(#SVGID_00000119091492132320390530000002483844380006597542_);fill:url(#SVGID_00000063593016630139165320000011827979992001088396_);" points="  654.3,3704.9 572.2,2362.4 1995.9,2275.3 2078,3617.9  "></polygon></g></svg>