<svg xmlns="http://www.w3.org/2000/svg" xmlns:xlink="http://www.w3.org/1999/xlink" id="Calque_1" x="0px" y="0px" viewBox="0 0 2000 7800" style="enable-background:new 0 0 2000 7800;" xml:space="preserve" width="2000"  height="7800" ><style type="text/css">			.st0{clip-path:url(#SVGID_00000152264053331314855640000012435071407404130985_);fill:url(#SVGID_00000011736690665764730510000004368337273200432294_);}			.st1{clip-path:url(#SVGID_00000088094141366748831140000008958923056705562302_);fill:url(#SVGID_00000179610739249855277170000013096873667009675452_);}			.st2{clip-path:url(#SVGID_00000149364179334695444090000002383908950228415673_);fill:url(#SVGID_00000026865702798261809220000013283379914003637379_);}			.st3{clip-path:url(#SVGID_00000079472252767250600780000000169584989099988370_);fill:url(#SVGID_00000044895720430894668340000012327200460407969719_);}			.st4{clip-path:url(#SVGID_00000150815997468879088640000008729101619476717733_);fill:url(#SVGID_00000082338075599749098810000017240269212579721904_);}			.st5{clip-path:url(#SVGID_00000140705581664202613430000003581034871601591731_);fill:url(#SVGID_00000132062941971410063680000011432061289612108205_);}			.st6{clip-path:url(#SVGID_00000142150964168245899420000007301842100901312443_);fill:url(#SVGID_00000106125983125057160490000006066931448325125280_);}			.st7{clip-path:url(#SVGID_00000069377767681335254940000011876613178449440445_);fill:url(#SVGID_00000035493485638820778370000007594559401414376090_);}</style><g>	<defs>		<path id="SVGID_1_" d="M1479.1,7190.7c-22.7,8.9-30,36.8-34.2,60.8c-7.4,42.1-6.7,118.2-37,147.7c-14.1-23.9-28.8-49.9-52.9-65.6   c-33.9-22.1-90-13.3-101,25.6c-10.4,36.7,23,70,53.4,92.9c30.4,22.9,65,53.7,58.2,91.2c-6.4,35-45.1,52.3-78.2,65.4   c-33.1,13.1-70.9,34.9-71.5,70.5c-0.6,40.2,50.4,63.3,89.5,53.9c39.1-9.4,69.8-38.6,103.8-60c34.1-21.4,80.2-34.6,113-11.4   c26.5,18.7,34.2,53.7,46.6,83.6c12.4,29.9,40.1,60.9,71.6,53c27.3-6.8,39.8-40.4,35.4-68.2c-4.4-27.8-20.6-52.1-32.1-77.8   c-11.5-25.7-18.1-56.9-3.6-81.1c19.7-32.9,65.4-35.4,103.7-35.7c38.3-0.4,85.1-8.3,98.3-44.3c14.1-38.4-24.8-78.5-65.1-85.6   c-40.3-7.1-81,6.4-121.7,10.9c-40.7,4.5-88.7-4.2-108.5-40c-12.4-22.4-10.4-49.8-7-75.2c3.4-25.4,7.6-52-1.1-76.1   c-7.2-19.9-27-36.8-47.1-36.8C1487.5,7188.3,1483.3,7189,1479.1,7190.7"/>	</defs>	<clipPath id="SVGID_00000159436547733479765290000010978688963966909575_">		<use xlink:href="#SVGID_1_" style="overflow:visible;"/>	</clipPath>			<linearGradient id="SVGID_00000019641730607273616490000008731180039747224732_" gradientUnits="userSpaceOnUse" x1="743.8224" y1="4151.7871" x2="744.8044" y2="4151.7871" gradientTransform="matrix(640.7527 0 0 -640.7527 -475390.9062 2667766.25)">		<stop offset="0" style="stop-color:#F7F7EE"/>		<stop offset="0.326" style="stop-color:#FFFFFF"/>		<stop offset="0.6817" style="stop-color:#F7F7EE"/>		<stop offset="1" style="stop-color:#FFFFFF"/>	</linearGradient>			<rect x="1215.4" y="7188.3" style="clip-path:url(#SVGID_00000159436547733479765290000010978688963966909575_);fill:url(#SVGID_00000019641730607273616490000008731180039747224732_);" width="641" height="617.8"/></g><g>	<defs>		<path id="SVGID_00000092457857551817963740000011635789372820813956_" d="M347.2,6739.2c13.6,98.3,62.6,189.1,124.9,266.4   c62.3,77.3,138,142.6,213.2,207.4c19.7,17,48.5,34.6,69.3,19c13.5-10.1,15.5-29.3,15.8-46.2c1.5-95.7-15.1-191.6-48.7-281.2   c-38.2-101.8-97.8-193.8-166.1-278c-34.6-42.6-71.5-83.2-109.4-122.8c-25.9-27-70.2-91.3-107.4-96.3   C347.4,6517.1,332.2,6630.4,347.2,6739.2"/>	</defs>	<clipPath id="SVGID_00000082339761896494907320000002989597819889943434_">		<use xlink:href="#SVGID_00000092457857551817963740000011635789372820813956_" style="overflow:visible;"/>	</clipPath>			<linearGradient id="SVGID_00000153694408565367314580000008720090765969822890_" gradientUnits="userSpaceOnUse" x1="741.7729" y1="4157.2017" x2="742.7549" y2="4157.2017" gradientTransform="matrix(187.7532 -1086.9746 -1086.9746 -187.7532 4379963.5 1594173)">		<stop offset="0" style="stop-color:#F7F7EE"/>		<stop offset="0.326" style="stop-color:#FFFFFF"/>		<stop offset="0.6817" style="stop-color:#F7F7EE"/>		<stop offset="1" style="stop-color:#FFFFFF"/>	</linearGradient>			<polygon style="clip-path:url(#SVGID_00000082339761896494907320000002989597819889943434_);fill:url(#SVGID_00000153694408565367314580000008720090765969822890_);" points="  191.3,7223.3 344.9,6333.8 912.9,6431.9 759.3,7321.5  "/></g><g>	<defs>		<path id="SVGID_00000088134140914135729050000004582728517580223146_" d="M120,1346.6c-29.4,25.2-47.5,61.2-61.5,97.3   c-29.9,76.8-45.5,159.5-45.3,242c0.1,75.6,30.6,78.5,100.5,89.6c77.1,12.2,154.9,20.3,232.9,24.2c151.3,7.6,303.4-0.6,453-24.6   c44.2-7.1,92.7-18.4,118-55.3c18.3-26.7,20-62,12-93.4c-8-31.4-24.6-59.7-41-87.6c-10.9-18.5-22-37.3-38.1-51.4   c-16.1-14.2-38.2-23.2-59.1-18.3c-28.5,6.6-45.8,36.4-51.3,65.2c-5.4,28.8-2.5,58.6-7.9,87.4c-3.6,19-14.5,40.3-33.7,41.9   c-13.7,1.1-26.3-9-32.6-21.2c-6.3-12.2-7.5-26.3-8.9-40c-6.4-61.7-19.4-125.7-58.8-173.6c-39.4-47.9-112.1-73.3-165.6-42   c-34.5,20.2-54.4,59.4-61.3,98.8c-6.9,39.4-2.6,79.8,0.5,119.7c1.2,15.3,2.2,31.2-3.7,45.4c-5.9,14.2-20.7,25.9-35.7,22.9   c-22-4.3-27.9-32.5-29-54.9c-2.3-46.3-4.6-92.5-6.9-138.8c-1.5-29.8-3.1-60.1-12.6-88.4c-9.6-28.3-28.4-54.8-55.7-66.8   c-10.8-4.7-22.2-6.9-33.8-6.9C167.6,1317.7,140.5,1329,120,1346.6"/>	</defs>	<clipPath id="SVGID_00000158008938186767865790000005935439591282986126_">		<use xlink:href="#SVGID_00000088134140914135729050000004582728517580223146_" style="overflow:visible;"/>	</clipPath>			<linearGradient id="SVGID_00000142878749580315950750000002430840862692483508_" gradientUnits="userSpaceOnUse" x1="746.5862" y1="4152.0552" x2="747.5682" y2="4152.0552" gradientTransform="matrix(657.6501 360.0529 360.0529 -657.6501 -1985702 2463228)">		<stop offset="0" style="stop-color:#F7F7EE"/>		<stop offset="0.326" style="stop-color:#FFFFFF"/>		<stop offset="0.6817" style="stop-color:#F7F7EE"/>		<stop offset="1" style="stop-color:#FFFFFF"/>	</linearGradient>			<polygon style="clip-path:url(#SVGID_00000158008938186767865790000005935439591282986126_);fill:url(#SVGID_00000142878749580315950750000002430840862692483508_);" points="  226.2,928.3 1143.7,1430.6 724.3,2196.7 -193.2,1694.4  "/></g><g>	<defs>		<path id="SVGID_00000108272062237033354110000015473230759264032927_" d="M1707.5,4529c-267.1,44.3-538.3,63.9-808.9,58.6   c-60.1-1.2-136.1-10.1-106.6,71.1c24.1,66.1,56,142.5,102.1,196.3c42.5,49.5,102.8,80.4,164.5,101.5   c145.9,49.8,311.7,49.4,450.7-17.4c139-66.8,246.2-203.7,261.6-357.1c1.6-15.6,1.5-33.2-9.3-44.5c-7.9-8.3-19.1-10.8-30.9-10.8   C1723,4526.7,1715,4527.8,1707.5,4529"/>	</defs>	<clipPath id="SVGID_00000146459677985583664220000000375283022757891725_">		<use xlink:href="#SVGID_00000108272062237033354110000015473230759264032927_" style="overflow:visible;"/>	</clipPath>			<linearGradient id="SVGID_00000075142345814345606750000015382689092593124488_" gradientUnits="userSpaceOnUse" x1="745.1151" y1="4152.6587" x2="746.0971" y2="4152.6587" gradientTransform="matrix(868.4967 197.3176 197.3176 -868.4967 -1465551.75 3464245.25)">		<stop offset="0" style="stop-color:#F7F7EE"/>		<stop offset="0.326" style="stop-color:#FFFFFF"/>		<stop offset="1" style="stop-color:#FFFFFF"/>	</linearGradient>			<polygon style="clip-path:url(#SVGID_00000146459677985583664220000000375283022757891725_);fill:url(#SVGID_00000075142345814345606750000015382689092593124488_);" points="  812,4308.5 1876.1,4550.2 1722.9,5224.5 658.8,4982.7  "/></g><g>	<defs>		<path id="SVGID_00000152258075985843900240000001175331260101134740_" d="M593.2,3496.2c-100.9,18.7-200.2,71.3-251.8,159.9   c-38.9,66.7-47.3,147.9-36.7,224.4c10.6,76.5,38.9,149.4,69.9,220.1c16.7,38.2,38.7,80.1,78.8,91.9c42,12.4,87.4-15.7,109.2-53.7   c21.7-38,25.3-83.4,28-127.1c2.7-43.7,5.4-89,25.7-127.7c21.9-41.8,62-71.1,103.6-93.5c41.6-22.4,86.1-39.4,125.8-65   c39.7-25.6,75.3-61.9,86.9-107.7c27.8-110.6-77.9-136.9-183-136.9C688.5,3481,627.7,3489.8,593.2,3496.2"/>	</defs>	<clipPath id="SVGID_00000161594632882356799670000017034318307220719799_">		<use xlink:href="#SVGID_00000152258075985843900240000001175331260101134740_" style="overflow:visible;"/>	</clipPath>			<linearGradient id="SVGID_00000001634659097834177090000000888550419583172741_" gradientUnits="userSpaceOnUse" x1="748.983" y1="4155.0928" x2="749.965" y2="4155.0928" gradientTransform="matrix(246.4698 821.5268 821.5268 -246.4698 -3597682.75 412009.7188)">		<stop offset="0" style="stop-color:#F7F7EE"/>		<stop offset="0.326" style="stop-color:#FFFFFF"/>		<stop offset="0.6817" style="stop-color:#F7F7EE"/>		<stop offset="1" style="stop-color:#FFFFFF"/>	</linearGradient>			<polygon style="clip-path:url(#SVGID_00000161594632882356799670000017034318307220719799_);fill:url(#SVGID_00000001634659097834177090000000888550419583172741_);" points="  905.4,3297.6 1159.7,4145.2 349.1,4388.4 94.8,3540.8  "/></g><g>	<defs>		<path id="SVGID_00000041286034685052469780000005909948232950846390_" d="M1328.3,3796.6c-57.6,87.2-32.6,206.5-75.4,301.8   c-16.5,36.7-42.3,68.1-65.3,101c-23.1,32.9-44.1,69-48.6,108.9c-4.5,39.9,11.1,84.4,46.4,103.6c33.9,18.4,77.3,9.3,109.9-11.4   c32.6-20.7,57.3-51.4,83.7-79.6c26.4-28.2,56.6-55.3,94-65.1c36.3-9.5,74.5-1.6,112-1.5c103.7,0.4,207.3-129.7,223.2-225.1   c13.6-81.2-27-163.5-84.6-222.3c-52.9-54-123-93.8-198.4-99.6c-5.9-0.5-11.8-0.7-17.6-0.7   C1437.7,3706.7,1366.8,3738.4,1328.3,3796.6"/>	</defs>	<clipPath id="SVGID_00000023977199396603732770000011989160252002628769_">		<use xlink:href="#SVGID_00000041286034685052469780000005909948232950846390_" style="overflow:visible;"/>	</clipPath>			<linearGradient id="SVGID_00000143577173695523782260000004734750090389511321_" gradientUnits="userSpaceOnUse" x1="746.2176" y1="4160.2041" x2="747.1996" y2="4160.2041" gradientTransform="matrix(-1115.2642 186.6312 186.6312 1115.2642 57593.9258 -4774977.5)">		<stop offset="0" style="stop-color:#F7F7EE"/>		<stop offset="0.326" style="stop-color:#FFFFFF"/>		<stop offset="0.6817" style="stop-color:#F7F7EE"/>		<stop offset="1" style="stop-color:#FFFFFF"/>	</linearGradient>			<polygon style="clip-path:url(#SVGID_00000023977199396603732770000011989160252002628769_);fill:url(#SVGID_00000143577173695523782260000004734750090389511321_);" points="  1939.7,4410.7 1153.2,4542.3 1016.6,3726.4 1803.1,3594.8  "/></g><g>	<defs>		<path id="SVGID_00000177484219922019321880000016317672870735963579_" d="M1260.8,2085c-52.9,31.1-74,116.8-25,153.7   c21.9,16.5,51,19.2,75.9,30.9c24.8,11.6,46.6,41.4,32.9,65.2c-15.3,26.6-55.3,18.1-83.5,6.2c-81-34.2-162.1-68.4-243.1-102.6   c-62.5-26.4-129-53.3-196-42.9c-67,10.4-130.5,74.3-114.1,140.1c12.8,51.5,65.9,81.5,116.1,98.5c50.2,17,105.4,28.6,143,65.9   c37.6,37.4,42.7,112.7-5.1,135.6c-39.4,18.9-84.1-8.3-121.1-31.5c-63.8-39.9-178.7-110-257.5-102.4   c-70.7,6.8-95.6,101.8-72.6,160.3c20.9,53.2,70.8,90.5,124,111.2c53.3,20.7,110.7,27.5,167,37.4c279.8,49.3,544.2,183,749.8,379.2   c31.2,29.8,61.6,61.3,99.4,82.1c37.8,20.8,85.2,29.3,124,10.4c57.5-28,74.1-108,48.9-166.7c-25.2-58.8-80.7-98.9-137.9-127.6   c-57.1-28.7-118.6-49.3-171.8-84.8c-29.9-20-59.6-52.3-51.1-87.3c9.2-38.2,58-52,96.8-45.6c55.6,9.1,103.2,43.4,149,76.1   c45.8,32.7,94.8,65.8,150.8,71.7c56,5.9,120.1-25.6,130.6-80.9c6.7-35.1-9.5-71.5-34-97.6c-24.4-26.1-56.3-43.9-87.6-61.2   c-75.6-41.8-151.3-83.6-226.9-125.5c-31.7-17.5-64.5-36-85-65.8c-20.5-29.8-24.4-74.4,1.1-100c27.4-27.4,74.1-21.1,108.2-2.8   c34.1,18.3,62.9,46.3,99.1,60.1c36.2,13.8,85.7,6.5,100.8-29.1c14.6-34.6-10.7-72.4-36.4-99.8c-105-112.3-241.4-195-389.6-236   c-30.5-8.5-63.2-14.9-94.8-14.9C1315.2,2064.3,1286.4,2070,1260.8,2085"/>	</defs>	<clipPath id="SVGID_00000161603268360711846300000004161208085620703925_">		<use xlink:href="#SVGID_00000177484219922019321880000016317672870735963579_" style="overflow:visible;"/>	</clipPath>			<linearGradient id="SVGID_00000011000803844597268790000001182497803505872772_" gradientUnits="userSpaceOnUse" x1="741.4666" y1="4156.6226" x2="742.4486" y2="4156.6226" gradientTransform="matrix(505.0565 -911.146 -911.146 -505.0565 3413867.25 2777925.25)">		<stop offset="0" style="stop-color:#F7F7EE"/>		<stop offset="0.326" style="stop-color:#FFFFFF"/>		<stop offset="0.6817" style="stop-color:#F7F7EE"/>		<stop offset="1" style="stop-color:#FFFFFF"/>	</linearGradient>			<polygon style="clip-path:url(#SVGID_00000161603268360711846300000004161208085620703925_);fill:url(#SVGID_00000011000803844597268790000001182497803505872772_);" points="  -36.8,3010.5 842.3,1424.4 2521.2,2355 1642,3941.1  "/></g><g>	<defs>		<path id="SVGID_00000028292315770529608540000016465966253792037552_" d="M901.9,652.2c-26.8-56.3,38.6-107.7,83.8-124.8   c34.4-13,71-19.5,106.9-26.2c42.7-7.9,85.6-16,128.8-20.4c43.8-4.4,89.2-6.2,133.3-0.2c-9,18.6-19.8,36.4-32.4,52.9   c-69.4,91.3-196.4,161.9-312.2,162.5c-0.4,0-0.8,0-1.3,0C971.3,696.1,919,688.1,901.9,652.2 M758.9,233.2   C652.2,375,582.8,551.1,546.1,723.8c-9.7,45.5-16.7,91.4-22.2,137.6c-3.1,26,24.4,48.3,48.3,48.3c28.7,0,45.2-22.3,48.3-48.3   c18.5-155.5,66.1-308.3,139-446.8c61.2-116.2,147.6-240.5,276.5-287.3c114.8-41.8,252.2-22.9,315.9,91.4   c29.1,52.2,38.3,111.3,30.7,168.6c-122.7-21.5-258.4,5-374.4,32.7c-85.2,20.4-165.3,64.7-197.8,150.4   c-27.6,73,2.8,153.9,70.1,192.2c127,72.2,303.4,8.6,412.1-69.6c67.5-48.5,121.9-112.1,154.6-184.9c48.5,23.8,93.3,63,111.2,114.7   c20.2,58.3,1.3,116.8-32,166.1c-41.7,61.8-104.2,107.8-167.1,145.9c-73.2,44.4-150.6,81.6-231.3,110.3   c-159.9,56.9-328.6,82.2-498.1,74.7c-62.2-2.8-62.1,93.9,0,96.7c177.2,7.9,356.6-18.6,523.8-78.1c84-29.9,165.7-67.5,242.4-112.9   c71.3-42.2,139.9-92.2,191.6-157.8c52.6-66.8,85.2-146.8,72.5-232.8c-11.6-78.3-61.9-142.7-125.6-187   c-18.8-13.1-38.5-24-58.8-32.9c6.2-35.9,7.2-73.3,2.2-111.5c-9.3-72.3-37.9-141-87.6-195.1c-54.4-59.2-130.7-90.3-209.6-97.7   c-11.7-1.1-23.3-1.6-34.7-1.6C987.9,9,851.7,109.8,758.9,233.2"/>	</defs>	<clipPath id="SVGID_00000124880560081918709780000018042289467382872196_">		<use xlink:href="#SVGID_00000028292315770529608540000016465966253792037552_" style="overflow:visible;"/>	</clipPath>			<linearGradient id="SVGID_00000093160410340751570090000001884668110096930483_" gradientUnits="userSpaceOnUse" x1="744.3613" y1="4154.2217" x2="745.3433" y2="4154.2217" gradientTransform="matrix(1160.4585 0 0 -1160.4585 -863276.6875 4821418.5)">		<stop offset="0" style="stop-color:#F7F7EE"/>		<stop offset="0.5257" style="stop-color:#FFFFFF"/>		<stop offset="1" style="stop-color:#FFFFFF"/>	</linearGradient>			<rect x="520.8" y="9" style="clip-path:url(#SVGID_00000124880560081918709780000018042289467382872196_);fill:url(#SVGID_00000093160410340751570090000001884668110096930483_);" width="1152.4" height="1215.4"/></g></svg>